<?xml version="1.0" encoding="UTF-8" standalone="no"?>
<!DOCTYPE svg PUBLIC "-//W3C//DTD SVG 1.1//EN" "http://www.w3.org/Graphics/SVG/1.1/DTD/svg11.dtd">
<!-- Created with Vectornator (http://vectornator.io/) -->
<svg height="100%" stroke-miterlimit="10" style="fill-rule:nonzero;clip-rule:evenodd;stroke-linecap:round;stroke-linejoin:round;" version="1.1" viewBox="0 0 1008 612" width="100%" xml:space="preserve" xmlns="http://www.w3.org/2000/svg" xmlns:vectornator="http://vectornator.io" xmlns:xlink="http://www.w3.org/1999/xlink">
<defs/>
<g id="Capa-2" vectornator:layerName="Capa 2">
<path d="M386.467 24.7034C364.607 25.19 340.028 33.4236 305.928 47.6053C251.857 70.0922 206.586 132.572 175.365 191.266C126.887 282.405 120.534 421.869 198.909 512.562C239.773 559.85 307.068 578.447 373.706 582.493C498.516 590.071 610.798 566.851 610.798 566.851C496.227 572.097 379.051 548.228 323.239 517.429C213.916 457.101 201.078 334.943 238.956 239.467C262.859 179.214 285.238 151.415 317.263 130.248C332.391 120.249 345.302 115.853 354.958 111.303C379.736 99.6275 391.764 102.787 393.657 102.48C393.763 102.463 406.033 102.43 406.033 102.43" fill="#000000" fill-rule="nonzero" opacity="0" stroke="#007aff" stroke-linecap="butt" stroke-linejoin="round" stroke-opacity="0" stroke-width="10.5094"/>
<path d="M550.196 22.7941L604.969 22.9215L605.214 353.011L550.442 352.883L550.196 22.7941Z" fill="#000000" fill-rule="nonzero" opacity="1" stroke="#007aff" stroke-linecap="butt" stroke-linejoin="round" stroke-opacity="0" stroke-width="7.41155"/>
<path d="M727.862 20.6257L663.954 74.4223L468.54 74.2518L460.016 74.9112L453.496 75.8822L455.029 21.9142L469.563 20.3989L482.683 20.4704L727.862 20.6257Z" fill="#000000" fill-rule="nonzero" opacity="1" stroke="#007aff" stroke-linecap="butt" stroke-linejoin="round" stroke-opacity="0" stroke-width="6.38237" vectornator:layerName="(rectangle)"/>
<path d="M485.15 140.723L539.316 80.0016L539.978 199.971L428.587 200.517L485.15 140.723Z" fill="#000000" fill-rule="nonzero" opacity="1" stroke="#007aff" stroke-linecap="butt" stroke-linejoin="round" stroke-opacity="0" stroke-width="11.818"/>
<path d="M280.138 217.489C280.138 116.309 357.416 32.9367 456.918 21.6896C464.461 20.837 472.131 20.3989 479.906 20.3989C524.845 20.3989 528.661 74.2233 492.08 74.2723C490.994 74.2738 489.898 74.2788 488.728 74.2694C488.209 74.2652 487.638 74.331 487.111 74.268C436.211 68.1881 377.177 103.67 352.888 158.486C344.999 176.291 340.432 196.198 340.432 217.489C340.432 256.356 329.628 309.081 406.498 365.648C493.85 429.929 675.574 394.802 605.382 405.034C326.866 445.636 280.138 326.338 280.138 217.489Z" fill="#000000" fill-rule="nonzero" opacity="1" stroke="#007aff" stroke-linecap="butt" stroke-linejoin="round" stroke-opacity="0" stroke-width="7.41155"/>
<path d="M170.312 453.796L238.248 422.117L243.175 432.398L249.344 443.262L183.179 475.036L181.224 472.15L178.441 467.86L174.05 460.566L170.312 453.796Z" fill="#063971" fill-rule="nonzero" opacity="0" stroke="#007aff" stroke-linecap="butt" stroke-linejoin="round" stroke-opacity="0" stroke-width="10.5094"/>
<path d="M191.231 485.917L256.689 454.308L263.362 463.117L270.992 472.149L207.208 503.782L203.19 499.671L198.502 494.578L194.536 489.973L191.231 485.917Z" fill="#308446" fill-rule="nonzero" opacity="0" stroke="#007aff" stroke-linecap="butt" stroke-linejoin="round" stroke-opacity="0" stroke-width="10.5094" vectornator:layerName="(rectangle)"/>
<path d="M219.37 514.924L280.601 482.343L285.706 487.332L291.452 492.658L296.907 497.467L236.625 528.081L231.257 524.283L227.985 521.842L222.607 517.607L219.37 514.924Z" fill="#b32821" fill-rule="nonzero" opacity="0" stroke="#007aff" stroke-linecap="butt" stroke-linejoin="round" stroke-opacity="0" stroke-width="10.5094" vectornator:layerName="(rectangle)"/>
<path d="M550.239 87.708C550.239 87.708 577.612 81.1506 605.076 74.3709C604.991 90.1725 604.909 101.701 604.909 101.701L550.265 115.808L550.239 87.708Z" fill="#063971" fill-rule="nonzero" opacity="1" stroke="#007aff" stroke-linecap="butt" stroke-linejoin="round" stroke-opacity="0" stroke-width="7.41155"/>
<path d="M550.307 171.394C550.307 171.394 577.934 164.382 605.191 157.234C604.95 173.263 604.755 184.958 604.755 184.958L550.328 199.965L550.307 171.394Z" fill="#b32821" fill-rule="nonzero" opacity="1" stroke="#007aff" stroke-linecap="butt" stroke-linejoin="round" stroke-opacity="0" stroke-width="7.41155"/>
<path d="M550.275 129.103C550.275 129.103 577.612 122.562 605.076 115.782C604.991 131.584 604.909 143.112 604.909 143.112L550.296 157.172L550.275 129.103Z" fill="#308446" fill-rule="nonzero" opacity="1" stroke="#007aff" stroke-linecap="butt" stroke-linejoin="round" stroke-opacity="0" stroke-width="7.41155"/>
<path d="M550.239 80.1087L604.919 80.1087L604.919 100.029L550.239 100.029L550.239 80.1087Z" fill="#063971" fill-rule="nonzero" opacity="0" stroke="#007aff" stroke-linecap="butt" stroke-linejoin="round" stroke-opacity="0" stroke-width="7.41155"/>
<path d="M550.365 108.353L605.045 108.353L605.045 128.274L550.365 128.274L550.365 108.353Z" fill="#308446" fill-rule="nonzero" opacity="0" stroke="#007aff" stroke-linecap="butt" stroke-linejoin="round" stroke-opacity="0" stroke-width="7.41155"/>
<path d="M550.365 136.698L605.045 136.698L605.045 156.619L550.365 156.619L550.365 136.698Z" fill="#b32821" fill-rule="nonzero" opacity="0" stroke="#007aff" stroke-linecap="butt" stroke-linejoin="round" stroke-opacity="0" stroke-width="7.41155"/>
<path d="M461.028 158.257L539.013 80.0108L539.306 199.697L461.72 200.258L461.028 158.257Z" fill="#000000" fill-rule="nonzero" opacity="0" stroke="#007aff" stroke-linecap="butt" stroke-linejoin="round" stroke-opacity="0" stroke-width="11.818"/>
</g>
<g id="Capa-3" vectornator:layerName="Capa 3"/>
</svg>
